# xmcd
#
# Track frame offsets:
#	150
#	15548
#	33401
#	50244
#	66286
#	90304
#	104897
#	122267
#	140263
#	161528
#	175440
#	190276
#	205351
#	218909
#
# Disc length: 3170 seconds
#
# Revision: 1
# Processed by: cddbd v1.5.2PL0 Copyright (c) Steve Scherf et al.
# Submitted via: audiograbber 1.83.01
#
DISCID=cb0c600e
DTITLE=Jason McCoy - Christmas at the Grand
DYEAR=2010
DGENRE=Country
TTITLE0=Dear Santa
TTITLE1=This is Christmas Day
TTITLE2=The Perfect Gift
TTITLE3=I Wanna Be Your Santa Claus
TTITLE4=Get Me Through December
TTITLE5=Boogie Woogie Santa Claus
TTITLE6=Santa Claus is Coming to Town
TTITLE7=Christmas, Baby Please Come Home
TTITLE8=Joy To The World
TTITLE9=Niko's Tiny Carousel
TTITLE10=Dear Santa - Studio Version
TTITLE11=The Perfect Gift - Studio Version
TTITLE12=Meet Me Under The Mistletoe - Studio Version
TTITLE13=This Is Christmas Day - Studio Version
EXTD=
EXTT0=
EXTT1=
EXTT2=
EXTT3=
EXTT4=
EXTT5=
EXTT6=
EXTT7=
EXTT8=
EXTT9=
EXTT10=
EXTT11=
EXTT12=
EXTT13=
PLAYORDER=
